#!OML:ASF X:\2005_08_12_Meinard\c3d\meinard.ASF
:FULLY-SPECIFIED
:DEGREES
1094
root -2.73709 17.0722 -5.29552 -35.7316 -70.9474 19.6702
lowerback 31.5455 -2.81141 0.00181505
upperback 3.16529 -4.76768 -5.20748
thorax -13.4017 -2.42531 -3.68158
lowerneck 0.560934 -14.6948 5.07177
upperneck -14.7372 -19.1671 7.00424
head -4.8228 -10.1625 2.35655
rclavicle 4.19933e-014 5.1684e-015
rhumerus 45.9793 7.50947 18.0231
rradius 90.0766
rwrist 24.6616
rhand -27.8283 -8.23709
rfingers 7.12502
rthumb -1.22007 -38.2133
lclavicle 4.19933e-014 5.1684e-015
lhumerus 152.647 135.169 224.969
lradius 9.612
lwrist -62.9848
lhand -15.4277 -13.8067
lfingers 7.12502
lthumb 10.7522 15.8981
rfemur 4.427 -4.30823 15.8812
rtibia 35.7944
rfoot -18.49 11.9292
rtoes -2.31412
lfemur 19.7589 -4.1342 -7.08316
ltibia 27.2388
lfoot 13.95 14.1422
ltoes -33.6319
1095
root -2.74299 17.0865 -5.30527 -35.669 -70.9828 19.6006
lowerback 31.5088 -2.78257 -0.0163657
upperback 3.17489 -4.72845 -5.16645
thorax -13.3654 -2.40559 -3.64478
lowerneck 0.322957 -14.7035 5.20398
upperneck -14.6545 -19.1901 7.02815
head -4.75762 -10.1793 2.31717
rclavicle 4.09993e-014 5.56597e-015
rhumerus 47.2196 9.04089 20.0492
rradius 93.369
rwrist 25.9102
rhand -27.4092 -7.8182
rfingers 7.12502
rthumb -0.815348 -37.7964
lclavicle 4.09993e-014 5.56597e-015
lhumerus 153.076 135.041 225.368
lradius 9.74199
lwrist -63.1335
lhand -15.4543 -14.7231
lfingers 7.12502
lthumb 10.7265 14.9831
rfemur 4.59086 -4.33175 15.9599
rtibia 35.4695
rfoot -18.36 11.9235
rtoes -2.40486
lfemur 19.6755 -4.19969 -7.08392
ltibia 27.3524
lfoot 14.1133 14.3123
ltoes -33.6359
1096
root -2.74999 17.0995 -5.31513 -35.6825 -70.9938 19.626
lowerback 31.4585 -2.7397 -0.0932033
upperback 3.17722 -4.68885 -5.11207
thorax -13.3254 -2.38219 -3.56233
lowerneck 0.0724545 -14.7144 5.3627
upperneck -14.5705 -19.2239 6.98342
head -4.70072 -10.1985 2.25303
rclavicle 3.22528e-014 4.37326e-014
rhumerus 48.6055 10.4177 22.2022
rradius 96.5074
rwrist 26.8476
rhand -26.9929 -7.16445
rfingers 7.12502
rthumb -0.413272 -37.1438
lclavicle 3.22528e-014 4.37326e-014
lhumerus 153.422 134.924 225.738
lradius 9.90595
lwrist -63.1687
lhand -15.3943 -15.7632
lfingers 7.12502
lthumb 10.7844 13.94
rfemur 4.74955 -4.34801 15.9949
rtibia 35.1537
rfoot -18.2284 11.9084
rtoes -2.38635
lfemur 19.5834 -4.22218 -7.10929
ltibia 27.457
lfoot 14.2883 14.4197
ltoes -33.7256
1097
root -2.75605 17.1107 -5.32549 -35.7033 -71.0094 19.6436
lowerback 31.433 -2.69166 -0.175102
upperback 3.19051 -4.64656 -5.06578
thorax -13.284 -2.35778 -3.48615
lowerneck -0.194571 -14.7077 5.56148
upperneck -14.5142 -19.2324 6.96449
head -4.65316 -10.2097 2.19174
rclavicle 6.24681e-014 1.43125e-014
rhumerus 50.1528 11.6918 24.3814
rradius 99.3406
rwrist 27.5362
rhand -26.6088 -6.36775
rfingers 7.12502
rthumb -0.0423014 -36.3475
lclavicle 6.24681e-014 1.43125e-014
lhumerus 153.836 134.804 226.129
lradius 10.0435
lwrist -63.1867
lhand -15.339 -16.7396
lfingers 7.12502
lthumb 10.8377 12.9608
rfemur 4.91027 -4.36107 16.0361
rtibia 34.8572
rfoot -18.1053 11.8979
rtoes -2.39055
lfemur 19.5172 -4.23675 -7.11864
ltibia 27.5485
lfoot 14.3852 14.5251
ltoes -33.764
1098
root -2.7619 17.1211 -5.33591 -35.6646 -71.0252 19.6053
lowerback 31.4182 -2.64393 -0.236002
upperback 3.18561 -4.5973 -5.01717
thorax -13.2692 -2.33081 -3.42114
lowerneck -0.41249 -14.7191 5.75494
upperneck -14.4463 -19.265 6.91471
head -4.61383 -10.23 2.12699
rclavicle -2.77802e-014 -1.74931e-014
rhumerus 51.7346 12.8774 26.5629
rradius 101.943
rwrist 27.9979
rhand -26.3583 -5.53117
rfingers 7.12502
rthumb 0.199658 -35.5108
lclavicle -2.77802e-014 -1.74931e-014
lhumerus 154.995 136.347 227.596
lradius 10.184
lwrist -61.2846
lhand -15.1619 -17.3975
lfingers 7.12502
lthumb 11.0086 12.2938
rfemur 5.04837 -4.35999 16.1022
rtibia 34.5875
rfoot -18.0027 11.8665
rtoes -2.31691
lfemur 19.452 -4.22735 -7.09904
ltibia 27.6232
lfoot 14.4833 14.5883
ltoes -33.8869
1099
root -2.76679 17.129 -5.34604 -35.6007 -71.0324 19.5247
lowerback 31.4266 -2.61005 -0.290481
upperback 3.18982 -4.56416 -4.9667
thorax -13.2555 -2.31144 -3.35033
lowerneck -0.617426 -14.7279 5.87018
upperneck -14.3945 -19.292 6.91122
head -4.5687 -10.2469 2.08812
rclavicle -6.44559e-014 8.74653e-015
rhumerus 53.2607 13.9313 28.6339
rradius 104.31
rwrist 28.4043
rhand -26.3738 -4.69572
rfingers 7.12502
rthumb 0.184738 -34.6754
lclavicle -6.44559e-014 8.74653e-015
lhumerus 156.086 138.112 229.02
lradius 10.3726
lwrist -59.1107
lhand -14.9404 -18.0079
lfingers 7.12502
lthumb 11.2222 11.6719
rfemur 5.18691 -4.40521 16.1672
rtibia 34.3533
rfoot -17.9465 11.8688
rtoes -2.3654
lfemur 19.4086 -4.17773 -7.04808
ltibia 27.6824
lfoot 14.5941 14.6161
ltoes -33.9911
1100
root -2.77102 17.1345 -5.35684 -35.6102 -71.0196 19.5345
lowerback 31.453 -2.55253 -0.39139
upperback 3.17529 -4.51754 -4.91665
thorax -13.2667 -2.28325 -3.25954
lowerneck -0.75238 -14.7418 5.88424
upperneck -14.376 -19.3158 6.97778
head -4.52969 -10.2619 2.09211
rclavicle 2.72832e-014 2.62396e-014
rhumerus 54.6515 14.8877 30.5063
rradius 106.455
rwrist 28.779
rhand -26.671 -3.84461
rfingers 7.12502
rthumb -0.102336 -33.8243
lclavicle 2.72832e-014 2.62396e-014
lhumerus 157.047 139.749 230.271
lradius 10.5451
lwrist -56.9665
lhand -14.6255 -18.5421
lfingers 7.12502
lthumb 11.5259 11.121
rfemur 5.29551 -4.43664 16.1932
rtibia 34.1548
rfoot -17.8982 11.8597
rtoes -2.30723
lfemur 19.3636 -4.12214 -7.03626
ltibia 27.7316
lfoot 14.6405 14.7235
ltoes -34.051
1101
root -2.77424 17.1361 -5.36854 -35.5453 -71.0202 19.465
lowerback 31.4854 -2.50629 -0.483294
upperback 3.1734 -4.48148 -4.86009
thorax -13.2668 -2.26028 -3.16226
lowerneck -0.907298 -14.7498 5.7981
upperneck -14.3588 -19.3332 7.08624
head -4.47086 -10.2716 2.11836
rclavicle -8.64713e-015 3.18055e-015
rhumerus 55.8023 15.6445 31.9919
rradius 108.382
rwrist 29.2661
rhand -27.3041 -2.95163
rfingers 7.12502
rthumb -0.713797 -32.9302
lclavicle -8.64713e-015 3.18055e-015
lhumerus 157.89 141.371 231.39
lradius 10.7477
lwrist -54.7658
lhand -14.3398 -18.9805
lfingers 7.12502
lthumb 11.8015 10.667
rfemur 5.37466 -4.46686 16.2587
rtibia 34.0104
rfoot -17.8886 11.8578
rtoes -2.31514
lfemur 19.3353 -4.02762 -6.96047
ltibia 27.7582
lfoot 14.6567 14.814
ltoes -34.0046
1102
root -2.7769 17.1368 -5.37937 -35.5037 -71.0204 19.409
lowerback 31.534 -2.45116 -0.552279
upperback 3.17061 -4.42824 -4.81279
thorax -13.2769 -2.23097 -3.0938
lowerneck -0.951462 -14.7768 5.59863
upperneck -14.4014 -19.3601 7.28639
head -4.43173 -10.2871 2.20202
rclavicle -2.11706e-014 -1.59028e-014
rhumerus 56.5307 16.3039 32.9955
rradius 110.031
rwrist 29.8903
rhand -28.4033 -1.77831
rfingers 7.12502
rthumb -1.77542 -31.7507
lclavicle -2.11706e-014 -1.59028e-014
lhumerus 158.634 142.873 232.366
lradius 10.9689
lwrist -52.6782
lhand -13.9987 -19.3092
lfingers 7.12502
lthumb 12.1303 10.3192
rfemur 5.43979 -4.49579 16.3123
rtibia 33.9054
rfoot -17.8916 11.8549
rtoes -2.22814
lfemur 19.3299 -3.93058 -6.89782
ltibia 27.7717
lfoot 14.6439 14.9202
ltoes -33.885
1103
root -2.77883 17.1354 -5.38963 -35.4622 -70.9967 19.3582
lowerback 31.594 -2.40806 -0.633225
upperback 3.15844 -4.39545 -4.76703
thorax -13.3033 -2.21002 -3.01186
lowerneck -1.00448 -14.803 5.39964
upperneck -14.4147 -19.3916 7.43454
head -4.3861 -10.3012 2.26671
rclavicle -7.95139e-015 -1.86858e-014
rhumerus 56.8837 16.8342 33.3704
rradius 111.396
rwrist 30.6595
rhand -29.8121 -0.337497
rfingers 7.12502
rthumb -3.13603 -30.2942
lclavicle -7.95139e-015 -1.86858e-014
lhumerus 159.248 144.298 233.187
lradius 11.1883
lwrist -50.5808
lhand -13.6447 -19.6544
lfingers 7.12502
lthumb 12.4716 9.95343
rfemur 5.48542 -4.54808 16.3506
rtibia 33.8399
rfoot -17.9331 11.8426
rtoes -2.26637
lfemur 19.316 -3.84178 -6.84222
ltibia 27.7846
lfoot 14.5683 15.0572
ltoes -33.6024
1104
root -2.78074 17.1327 -5.39644 -35.4497 -70.9671 19.347
lowerback 31.6253 -2.37451 -0.68228
upperback 3.15987 -4.36768 -4.7506
thorax -13.3078 -2.19436 -2.97787
lowerneck -1.00663 -14.8226 5.2249
upperneck -14.4868 -19.4071 7.60333
head -4.37265 -10.3118 2.34433
rclavicle 6.16232e-015 2.94201e-014
rhumerus 56.8048 17.2164 33.115
rradius 112.347
rwrist 31.456
rhand -31.4991 1.33582
rfingers 7.12502
rthumb -4.76505 -28.5906
lclavicle 6.16232e-015 2.94201e-014
lhumerus 159.789 145.77 233.908
lradius 11.4436
lwrist -48.4415
lhand -13.3005 -19.9161
lfingers 7.12502
lthumb 12.8035 9.67131
rfemur 5.50984 -4.63491 16.3377
rtibia 33.8159
rfoot -17.9875 11.9026
rtoes -2.22204
lfemur 19.3181 -3.80042 -6.84843
ltibia 27.7941
lfoot 14.443 15.2387
ltoes -33.3217
1105
root -2.78064 17.1277 -5.40194 -35.3468 -70.9528 19.2409
lowerback 31.6782 -2.35209 -0.675316
upperback 3.15092 -4.334 -4.72558
thorax -13.3365 -2.17817 -2.96651
lowerneck -0.982566 -14.8488 5.0435
upperneck -14.5895 -19.4312 7.75365
head -4.37679 -10.3264 2.42288
rclavicle 1.19768e-014 7.55382e-015
rhumerus 56.2693 17.439 32.357
rradius 112.717
rwrist 32.1563
rhand -33.5274 3.23795
rfingers 7.12502
rthumb -6.72334 -26.6353
lclavicle 1.19768e-014 7.55382e-015
lhumerus 160.203 147.01 234.476
lradius 11.6907
lwrist -46.5851
lhand -13.0191 -20.1907
lfingers 7.12502
lthumb 13.0748 9.37948
rfemur 5.50529 -4.71307 16.3624
rtibia 33.8374
rfoot -18.0886 11.9559
rtoes -2.23213
lfemur 19.3074 -3.75309 -6.81506
ltibia 27.8093
lfoot 14.3137 15.3972
ltoes -33.127
1106
root -2.78023 17.1208 -5.40708 -35.2758 -70.9235 19.1591
lowerback 31.7425 -2.32723 -0.679864
upperback 3.14547 -4.30296 -4.70816
thorax -13.3662 -2.16289 -2.95576
lowerneck -0.895766 -14.8728 4.82367
upperneck -14.738 -19.4434 7.95166
head -4.40017 -10.3375 2.53055
rclavicle 1.00337e-013 3.57812e-015
rhumerus 55.3369 17.4204 31.1648
rradius 112.538
rwrist 32.6186
rhand -35.695 5.1414
rfingers 7.12502
rthumb -8.81545 -24.6545
lclavicle 1.00337e-013 3.57812e-015
lhumerus 160.536 148.123 234.926
lradius 11.9201
lwrist -44.8656
lhand -12.7897 -20.4455
lfingers 7.12502
lthumb 13.2959 9.1104
rfemur 5.49567 -4.83519 16.3519
rtibia 33.8905
rfoot -18.1872 12.0419
rtoes -2.15617
lfemur 19.309 -3.78938 -6.83295
ltibia 27.8252
lfoot 14.1376 15.5927
ltoes -32.7905
1107
root -2.77743 17.1119 -5.41174 -35.2455 -70.8848 19.13
lowerback 31.8118 -2.29781 -0.698415
upperback 3.14185 -4.27258 -4.69881
thorax -13.3958 -2.14751 -2.94578
lowerneck -0.817966 -14.8942 4.69074
upperneck -14.9088 -19.4594 8.06062
head -4.45037 -10.3507 2.60266
rclavicle -1.25731e-014 2.54444e-014
rhumerus 54.1216 17.155 29.5913
rradius 111.914
rwrist 32.7358
rhand -37.6506 6.69544
rfingers 7.12502
rthumb -10.7022 -23.012
lclavicle -1.25731e-014 2.54444e-014
lhumerus 160.813 149.074 235.26
lradius 12.1196
lwrist -43.4533
lhand -12.7115 -20.6923
lfingers 7.12502
lthumb 13.3712 8.85862
rfemur 5.45147 -4.98513 16.3046
rtibia 33.9785
rfoot -18.3065 12.1732
rtoes -2.08938
lfemur 19.2994 -3.79846 -6.85837
ltibia 27.844
lfoot 13.9194 15.7762
ltoes -32.6272
1108
root -2.77598 17.1022 -5.41744 -35.1364 -70.8406 19.0158
lowerback 31.8832 -2.28594 -0.697522
upperback 3.13607 -4.25724 -4.68527
thorax -13.4306 -2.13962 -2.93564
lowerneck -0.721054 -14.9213 4.52359
upperneck -15.0679 -19.4808 8.18833
head -4.49374 -10.3655 2.68585
rclavicle -1.63003e-014 1.39149e-014
rhumerus 52.762 16.67 27.7369
rradius 110.79
rwrist 32.5472
rhand -39.3271 7.68761
rfingers 7.12502
rthumb -12.3191 -21.9295
lclavicle -1.63003e-014 1.39149e-014
lhumerus 160.979 149.688 235.438
lradius 12.3142
lwrist -42.4419
lhand -12.6602 -20.8639
lfingers 7.12502
lthumb 13.4207 8.68381
rfemur 5.40926 -5.12929 16.2944
rtibia 34.0855
rfoot -18.4303 12.2813
rtoes -2.00818
lfemur 19.2874 -3.82631 -6.84908
ltibia 27.8564
lfoot 13.6804 15.9675
ltoes -32.4751
